<svg xmlns="http://www.w3.org/2000/svg" width="110" height="154" viewBox="0 0 110 154"><path d="M0 140 L100 140 L100 154 L10 154 Z" fill="#546e7a"/><rect x="0.5" y="0.5" width="99" height="139" rx="3" fill="#ffffff" stroke="#78909c" stroke-width="1"/><g transform="translate(0,20)"><rect x="29.5" y="26" width="13" height="20" rx="6.5" fill="#2e7d32"/><rect x="29.5" y="34" width="13" height="4" rx="2" fill="#1b5e20"/><rect x="57.5" y="26" width="13" height="20" rx="6.5" fill="#2e7d32"/><rect x="57.5" y="34" width="13" height="4" rx="2" fill="#1b5e20"/><rect x="43.5" y="40" width="13" height="20" rx="6.5" fill="#2e7d32"/><rect x="43.5" y="48" width="13" height="4" rx="2" fill="#1b5e20"/><rect x="29.5" y="54" width="13" height="20" rx="6.5" fill="#2e7d32"/><rect x="29.5" y="62" width="13" height="4" rx="2" fill="#1b5e20"/><rect x="57.5" y="54" width="13" height="20" rx="6.5" fill="#2e7d32"/><rect x="57.5" y="62" width="13" height="4" rx="2" fill="#1b5e20"/></g></svg>