<svg xmlns="http://www.w3.org/2000/svg" width="110" height="154" viewBox="0 0 110 154"><path d="M100 0 L110 14 L110 154 L100 140 Z" fill="#78909c"/><rect x="0.5" y="0.5" width="99" height="139" rx="3" fill="#ffffff" stroke="#78909c" stroke-width="1"/><g transform="translate(0,20)"><g fill="#000000" stroke="#000000" stroke-width="2" stroke-linejoin="round" stroke-linecap="round"><path d="M12 48 C27 34 42 34 50 48 C58 62 73 62 88 48 M12 76 C27 62 42 62 50 76 C58 90 73 90 88 76 M20 104 C32 94 43 94 50 104 C57 114 68 114 80 104"/></g><circle cx="32" cy="110" r="2.6" fill="#000000"/><circle cx="44" cy="110" r="2.6" fill="#000000"/><circle cx="56" cy="110" r="2.6" fill="#000000"/><circle cx="68" cy="110" r="2.6" fill="#000000"/></g></svg>